<?xml version="1.0" encoding="UTF-8"?>
<!DOCTYPE svg PUBLIC "-//W3C//DTD SVG 1.1//EN" "http://www.w3.org/Graphics/SVG/1.1/DTD/svg11.dtd">
<!-- Creator: CorelDRAW -->
<svg xmlns="http://www.w3.org/2000/svg" xml:space="preserve" width="85.3651mm" height="43.6872mm" version="1.1" style="shape-rendering:geometricPrecision; text-rendering:geometricPrecision; image-rendering:optimizeQuality; fill-rule:evenodd; clip-rule:evenodd"
viewBox="0 0 219.96 112.57"
 xmlns:xlink="http://www.w3.org/1999/xlink"
 xmlns:xodm="http://www.corel.com/coreldraw/odm/2003">
 <defs>
  <style type="text/css">
   <![CDATA[
    .fil2 {fill:#FEFEFE}
    .fil1 {fill:#ED3237}
    .fil0 {fill:#ED3237;fill-rule:nonzero}
   ]]>
  </style>
 </defs>
 <g id="Слой_x0020_1">
  <metadata id="CorelCorpID_0Corel-Layer"/>
  <polygon class="fil0" points="0.33,73.27 0.33,0 63.4,0.04 63.4,73.27 31.86,44.34 "/>
  <path class="fil1" d="M-0 80.49c10.69,-9.62 21.38,-19.24 32.07,-28.87 10.55,9.71 21.1,19.43 31.66,29.15 -0.05,10.6 -0.09,21.2 -0.14,31.79 -21.15,0 -42.3,0 -63.45,0 -0.05,-10.69 -0.09,-21.38 -0.14,-32.07z"/>
  <polygon class="fil0" points="78.45,73.27 78.45,0 141.51,0.04 141.51,73.27 109.98,44.34 "/>
  <polygon class="fil0" points="156.56,73.27 156.56,0 219.63,0.04 219.63,73.27 188.1,44.34 "/>
  <path class="fil1" d="M78.12 80.49c10.69,-9.62 21.38,-19.24 32.07,-28.87 10.55,9.71 21.1,19.43 31.66,29.15 -0.05,10.6 -0.09,21.2 -0.14,31.79 -21.15,0 -42.3,0 -63.45,0 -0.05,-10.69 -0.09,-21.38 -0.14,-32.07z"/>
  <path class="fil1" d="M156.23 80.49c10.69,-9.62 21.38,-19.24 32.07,-28.87 10.55,9.71 21.1,19.43 31.66,29.15 -0.05,10.6 -0.09,21.2 -0.14,31.79 -21.15,0 -42.3,0 -63.45,0 -0.05,-10.69 -0.09,-21.38 -0.14,-32.07z"/>
  <g id="_1534848351648">
   <path class="fil2" d="M120.88 97.9c-0.13,0.37 -0.26,0.76 -0.39,1.1 -0.86,2.13 -1.68,4.57 -2.54,6.64 -0.6,-1.46 -1.12,-2.98 -1.68,-4.45 -0.26,-0.76 -0.56,-1.49 -0.82,-2.25 -0.3,-0.73 -0.69,-1.52 -0.73,-2.31l-3.62 0 0.04 0.7c0.52,0.03 1.12,0 1.29,0.3 0.09,0.21 0.04,7.77 0.04,8.74 0,0.61 0,0.85 -0.65,0.91 -0.26,0.03 -0.47,0.06 -0.69,0.09l0 0.7 3.62 0 -0.04 -0.7c-0.3,-0.03 -0.95,-0.03 -1.12,-0.24 -0.17,-0.15 -0.22,-0.18 -0.22,-0.49 0.04,-2.92 -0.04,-6.12 0,-8.95 0.17,0.27 2.71,7.22 2.93,7.8 0.17,0.43 0.34,0.88 0.47,1.28 0.13,0.4 0.3,0.91 0.47,1.31l0.78 0c0.09,-0.33 0.34,-0.94 0.47,-1.31l2.5 -6.61c0.17,-0.4 0.9,-2.44 1.03,-2.62 0.09,0.88 0,1.92 0,2.83l0 5.57c0,1.37 0.13,1.34 -0.69,1.4 -0.73,0.03 -0.6,-0.06 -0.6,0.73l4.09 0 0 -0.7c-0.26,0 -0.52,-0.03 -0.78,-0.06 -0.39,-0.03 -0.26,-0.03 -0.52,-0.21l0 -8.35c0,-1.68 -0.13,-1.19 1.29,-1.46l0 -0.67 -3.66 0.03c0.04,0.64 -0.09,0.73 -0.3,1.25z"/>
   <path class="fil2" d="M91.67 97.32c0.3,0.03 1.25,0 1.38,0.33l-0.04 3.99 -5.86 0 0.04 -4.02c0.26,-0.15 0.09,-0.21 0.56,-0.24 0.26,-0.03 0.52,-0.03 0.78,-0.06l0 -0.67c-1.08,-0.06 -3.01,-0.03 -4.18,-0.03l0.04 0.7c0.34,0.03 0.86,0.03 1.12,0.21 0.09,0.09 0.13,0.12 0.13,0.3l0 8.71c0,0.34 0,0.61 -0.34,0.7 -0.13,0.06 -0.73,0.09 -0.95,0.09l0.04 0.7 4.14 0 -0.04 -0.7c-0.3,-0.03 -0.65,0 -0.95,-0.06 -0.34,-0.06 -0.39,-0.3 -0.39,-0.7 0,-1.22 -0.04,-2.95 0.04,-4.14l5.81 0 0.04 4.14c0,0.67 -0.13,0.76 -1.38,0.76l0.04 0.7 4.13 0 -0.04 -0.7c-1.46,-0.15 -1.25,0 -1.25,-1.52 0,-0.91 0,-1.83 0,-2.74 0,-1.04 -0.04,-4.72 0,-5.45 0.3,-0.18 0.13,-0.21 0.56,-0.24 0.26,-0.03 0.47,-0.03 0.73,-0.06l0 -0.7 -4.18 0 0 0.7z"/>
   <path class="fil2" d="M103.09 97.26c1.51,-0.15 2.46,0.49 3.06,1.28 1.85,2.35 1.51,8.41 -2.2,8.86 -2.84,0.3 -4.05,-2.22 -4.18,-4.63 -0.09,-2.38 0.69,-5.24 3.32,-5.51zm-5.04 5.73c0.26,3.29 2.71,5.67 6.12,5.3 3.1,-0.33 5.13,-3.11 4.82,-6.64 -0.17,-2.22 -1.46,-4.23 -3.62,-5.03 -0.78,-0.27 -1.64,-0.37 -2.5,-0.24 -3.32,0.33 -5.13,3.35 -4.82,6.61z"/>
   <path class="fil2" d="M129.62 101.71l0 -4.29 3.92 0c0.26,0.37 0.22,0.21 0.34,0.79 0,0.15 0.04,0.3 0.04,0.46l0.09 0.34c0.09,0.24 0.69,0.12 0.95,0.12l0.04 -2.5 -8.18 0 0 0.7c0.3,0.03 1.12,0.03 1.25,0.33l0 9.41c-0.43,0.18 0.13,0.21 -1.25,0.3l0 0.7 8.79 0 0 -2.77 -0.86 0c-0.13,0.18 -0.26,1.19 -0.3,1.49 -0.09,0.67 -0.6,0.49 -1.29,0.49 -1.16,0 -2.37,0 -3.53,0l0 -4.81c0.78,0 1.55,0.03 2.33,0 0.52,0 0.65,0.03 0.73,0.46 0.04,0.27 0.04,0.82 0.13,1.04l0.82 0 0 -3.75 -0.82 0.03c-0.04,0.37 -0.09,0.7 -0.13,1.04 -0.04,0.12 -0.04,0.24 -0.26,0.37 -0.17,0.12 -2.5,0.06 -2.8,0.06z"/>
  </g>
  <g id="_1534848355968">
   <path class="fil2" d="M82.68 5.2c0.28,0 0.52,0.03 0.8,0.07 0.33,0.03 0.47,0 0.62,0.23 0.14,0.23 0.05,4.76 0.05,5.22 0,1.17 0,2.31 0,3.48 0,0.4 0.09,1.44 -0.09,1.67 -0.28,0.33 -0.62,0.3 -1.37,0.37l0 0.77 3.98 0 0 -0.77c-1.52,-0.17 -1.47,-0.07 -1.47,-1.51 0,-1.04 0,-2.04 0,-3.05 0,-2.01 -0.09,-4.15 0,-6.09l4.26 11.42 0.85 0c0.09,-0.44 0.33,-0.97 0.52,-1.44 0.38,-1 3.69,-9.91 3.88,-10.15 0.05,1.21 0,4.65 0,6.09 0,1.04 0,2.04 0,3.05 0,2.11 0.19,1.37 -1.42,1.71l0 0.7c0.43,0.13 3.74,0.03 4.5,0.03 0,-0.9 0.14,-0.74 -0.76,-0.8 -0.9,-0.07 -0.66,-0.27 -0.66,-1.98 0,-0.8 -0.05,-8.51 0,-8.67 0.14,-0.4 0.95,-0.3 1.42,-0.37l0 -0.74 -4.03 -0.03c0,0.94 -0.43,1.57 -0.76,2.61 -0.28,0.8 -0.66,1.61 -0.95,2.44l-1.8 4.69c0,0 0,0 0,0.03l-0.09 0.1c-0.09,-0.33 -0.28,-0.84 -0.43,-1.21 -0.76,-1.98 -1.61,-4.15 -2.27,-6.06 -0.19,-0.44 -0.28,-0.8 -0.47,-1.24 -0.24,-0.6 -0.28,-0.64 -0.33,-1.34l-3.98 -0.03 0 0.77z"/>
   <path class="fil2" d="M122.22 16.59l0 -4.42c0.28,-0.47 0.76,-0.3 1.33,-0.4l0.05 -0.77 -4.69 0 0 0.74c0.28,0.07 0.66,0.07 0.95,0.1 0.43,0 0.43,0.07 0.66,0.27l0 3.92c-1.42,0.27 -2.94,0.44 -4.31,-0.37 -2.08,-1.24 -2.65,-3.95 -2.32,-6.3 0.47,-3.35 3.31,-4.76 6.06,-3.92 0.47,0.13 0.9,0.3 0.95,0.77 0.09,0.5 0.19,1.07 0.28,1.54l1.04 0 0 -2.98c-0.57,-0.33 -2.94,-0.57 -3.79,-0.57 -2.32,0.03 -4.64,1 -5.73,3.05 -1.14,2.14 -1.09,4.82 0.09,6.97 0.57,1 1.23,1.61 2.18,2.21 0.9,0.6 2.32,0.87 3.55,0.84 0.81,-0.03 3.17,-0.37 3.69,-0.67z"/>
   <path class="fil2" d="M99.92 5.2c0.38,0.03 1.23,0.03 1.37,0.4l0 10.28c-0.09,0.37 -0.99,0.33 -1.37,0.37l0 0.77 9.66 0 0 -3.05 -0.95 0c-0.09,0.2 -0.24,1.31 -0.28,1.64 -0.14,0.74 -0.66,0.54 -1.42,0.54 -1.33,0 -2.6,0 -3.93,0l0 -5.26c0.9,0 1.75,0 2.6,-0.03 0.52,0 0.71,0.03 0.76,0.5 0.05,0.4 0.14,0.8 0.14,1.14l0.9 0 0 -4.12 -0.9 0c0,0.4 -0.09,0.77 -0.14,1.14 0,0.2 0,0.27 -0.19,0.4 -0.19,0.13 -0.28,0.1 -0.57,0.1 -0.85,0 -1.75,0 -2.6,0l0 -4.72 4.36 0c0.24,0.44 0.19,-0.1 0.33,0.87 0.05,0.3 0.09,0.67 0.19,1l0.99 0c0.09,-0.2 0.05,-2.48 0.05,-2.71l-9 -0.03 0 0.77z"/>
   <path class="fil2" d="M130.7 6.31c0.05,0.07 0,0 0.09,0.13l1.8 4.99 -3.74 0 1.85 -5.12zm-5.78 9.95l0 0.77 3.69 0c0,-0.27 0.05,-0.57 -0.05,-0.8l-1.18 -0.07c-0.24,-0.33 -0.19,-0.33 0.05,-0.94l1.14 -2.91 4.31 0c0.14,0.07 0.05,0 0.14,0.2 0.05,0.07 0.05,0.17 0.09,0.23l1.09 2.95c0.14,0.3 0.05,0.2 -0.05,0.47l-1.14 0.1 0 0.77 4.26 0 0 -0.77 -1.14 -0.23 -4.5 -11.75 -1.28 0c-0.14,0.5 -0.38,1.04 -0.57,1.54 -0.19,0.57 -0.38,1.07 -0.57,1.61l-3.13 8.34c-0.09,0.23 -0.05,0.23 -0.28,0.3 -0.24,0.07 -0.71,0.1 -0.9,0.2z"/>
  </g>
 </g>
</svg>
