<?xml version="1.0" encoding="utf-8"?>
<!-- Generator: Adobe Illustrator 24.1.3, SVG Export Plug-In . SVG Version: 6.00 Build 0)  -->
<svg version="1.1" id="Layer_1" xmlns="http://www.w3.org/2000/svg" xmlns:xlink="http://www.w3.org/1999/xlink" x="0px" y="0px"
	 viewBox="0 0 534 228" style="enable-background:new 0 0 534 228;" xml:space="preserve">
<style type="text/css">
	.st0{fill:#682D90;}
	.st1{fill:#682C8F;}
</style>
<path class="st0" d="M502.6,160.7c-5,15.5-13.3,28.2-25.7,38.2c-13.1,10.6-28.2,16.3-45.1,16c-18.2-0.3-34.3-6.5-47.7-19.1
	c-20.5-19.3-28.3-43.2-25.6-70.8c1.6-16.2,7.6-30.7,18-42.9c8.6-10.1,19-18,32.1-22.8C449.7,44.1,487,70,500.2,102
	c5,12,6.6,24.3,6.4,37.1c0,3.2-0.7,4.7-4.6,4.6c-25.6-0.2-51.2-0.2-76.7,0c-3.1,0-4.1-0.8-3.9-3.9c0.3-3.2,0.3-6.5,0-9.7
	c-0.3-3,1.3-3,3.6-3c20,0.1,39.9,0,59.9,0c4.6,0,4.6,0,3.9-4.5c-3.9-24.8-24-45.2-48.6-49.3c-23.3-3.9-48.2,9.7-59.2,32.3
	c-12.7,26.1-7.5,56.8,13.1,76.2c9.4,8.9,20.6,14.6,33.4,15c24.4,0.6,43.2-9.6,54.6-31.5c2-3.8,4.1-5.2,8.2-4.8
	C494.3,160.9,498.3,160.7,502.6,160.7z"/>
<path class="st1" d="M325,81c0-13.7,0-26.9,0-40.1c0-8.6,0.1-17.2-0.1-25.8c-0.1-2.7,0.8-3.3,3.4-3.2c4.6,0.2,9.2,0.2,13.8,0
	c2.7-0.1,3.3,0.9,3.2,3.4c-0.2,7.2-0.1,14.4-0.1,21.7c0,57.9,0,115.8,0.1,173.6c0,3.7-1,4.7-4.6,4.4c-4-0.3-8-0.3-12,0
	c-3.1,0.2-4.4-0.6-3.9-3.8c0.1-0.7-0.1-1.5-0.1-2.4c-6.2,1.8-12.2,3.8-18.5,4.7c-33.8,4.6-69.1-11.5-81.4-46.1
	c-7.6-21.4-5.6-43.2,9.2-61.9c20.2-25.5,46.8-34.1,78.5-28c2.1,0.4,4.1,1,6.1,1.6C320.7,79.5,322.5,80.2,325,81z M325,144.6
	c0-14.4,0-28.9,0-43.3c0-1.4,0.3-2.7-1.6-3.7c-13.5-6.7-27.7-8.6-42.2-5.2c-28.2,6.7-44.1,27.2-43.7,56
	c0.3,19.8,10.8,33.9,27.2,43.5c18.5,10.8,37.9,7.9,57,0.8c2.6-1,3.5-2.4,3.4-5.2C324.9,173.2,325,158.9,325,144.6z"/>
<path class="st0" d="M187.3,112.9c0-32.7,0-65.4-0.1-98.2c0-3.2,0.6-4.4,4-4.2c4.5,0.3,9,0.3,13.5,0c2.9-0.2,3.5,0.8,3.5,3.6
	c-0.1,17.8-0.1,35.6-0.1,53.4c0,47.8,0,95.6,0.1,143.3c0,3.2-0.6,4.4-4,4.2c-4.5-0.3-9-0.3-13.5,0c-2.9,0.2-3.5-0.9-3.5-3.6
	C187.3,178.6,187.3,145.7,187.3,112.9z"/>
<path class="st0" d="M58.5,198.8c51.4-19.6,57.3-104,0-128.2c4.9-4.7,10.7-7.7,16.7-10.3c1.8-0.8,3.3,0.3,4.8,1.3
	c19,12.6,30.8,30.1,35.4,52.3c4.7,22.8,2.2,44.8-8.6,65.6c-6.1,11.8-15.1,21.2-26.3,28.5c-2.4,1.6-4.6,1.9-7.3,0.6
	C68.1,205.9,63.7,202.3,58.5,198.8z"/>
<path class="st0" d="M82.6,57.5c15-3.7,29.1-4,43,1.3c29.3,11,44.6,33.2,50.4,63c1.3,6.5,0.7,13.1,0.8,19.7c0,1.6-0.6,2.2-2.2,2.2
	c-15.3,0-30.7,0-46,0c-1.8,0-2-1-1.9-2.3c0-3.9,0.1-7.7,0-11.6c-0.1-2.2,0.7-2.7,2.8-2.7c9,0.1,18-0.1,26.9,0.1
	c2.9,0.1,3.6-0.7,3.1-3.5c-4.5-24.2-21.2-44.5-46.1-49.9c-2.8-0.6-5.7-1.3-8.5-1.1c-3.9,0.3-6.5-1.4-9.2-3.8
	C91.7,65.2,87.4,61.7,82.6,57.5z"/>
<path class="st0" d="M39,93.3c2.4-5.3,6.1-9.4,9.4-13.7c1.1-1.5,2.6-1.2,4.1-0.6C74,87.8,92.1,107,91.5,133
	c-0.3,14.4-2.9,28.2-11.5,40.2c-6.8,9.5-16.4,15-27.2,18.8c-1.4,0.5-2.4,0-3.3-1c-3.4-3.8-6.5-7.8-9.2-12.2c-1.3-2.1-1-2.8,1.6-3.6
	c11.7-3.7,21.8-9.8,28.6-20.3c7.1-11.1,6.2-23,2.7-34.9c-3.9-13.1-13.4-20.5-26.1-24.3C44.4,94.9,41.8,94.1,39,93.3z"/>
<path class="st0" d="M84.9,212.3c4.4-4.7,8.8-9.5,13.3-14.3c1-1.1,2.5-1.1,3.8-1.1c24.6-0.6,41.3-13.1,52.1-34.4
	c0.6-1.1,1.1-1.8,2.4-1.8c5.2,0.1,10.4,0,15.7,0C164.8,191.3,128.5,224.4,84.9,212.3z"/>
<path class="st0" d="M29.4,122c0.4-7.1,2.9-13.6,5.1-20.1c0.5-1.3,1.6-1,2.5-0.9c12.4,1.8,22.9,6.9,27.8,19.1
	c5.2,13.1,5,26.2-4.2,37.7c-5.7,7.1-14.1,10-23.1,10.9c-1.8,0.2-2.4-0.6-3-2c-2.3-5.1-3.8-10.5-5-16.7c7,1.8,13.7,2.4,18.5-4.3
	c3.1-4.3,3.7-9.2,2.9-14.2C49.3,122.2,42.2,119.1,29.4,122z"/>
</svg>
