<svg width="111" height="33" viewBox="0 0 111 33" fill="none" xmlns="http://www.w3.org/2000/svg">
<g clip-path="url(#clip0)">
<path d="M0.568359 11.4697H4.33072C5.04328 11.4697 5.72666 11.7524 6.23051 12.2556C6.73437 12.7588 7.01744 13.4413 7.01744 14.153V31.8471H3.25508C2.54252 31.8471 1.85914 31.5644 1.35528 31.0612C0.851424 30.558 0.568359 29.8755 0.568359 29.1639V11.4697Z" fill="#022F5E"/>
<path d="M10.6797 11.4697H14.6458C15.3056 11.4697 15.9383 11.7315 16.4049 12.1974C16.8714 12.6633 17.1335 13.2953 17.1335 13.9542C17.8508 13.1254 18.6972 12.4175 19.6402 11.8578C20.7957 11.2112 22.1073 10.8952 23.4309 10.9444C24.8455 10.9028 26.245 11.2429 27.4824 11.9288C28.5827 12.5601 29.4476 13.5318 29.9464 14.6972C30.3124 14.217 30.7064 13.7588 31.1262 13.3248C32.0517 12.3689 33.2066 11.6651 34.4811 11.2804C35.2496 11.0518 36.0485 10.9417 36.8503 10.9539C39.03 10.9539 40.7517 11.5565 42.0153 12.7617C43.2789 13.9668 43.9107 15.5995 43.9107 17.6596V31.8566H37.4332V19.8317C37.4643 19.3588 37.4012 18.8844 37.2475 18.436C37.0938 17.9876 36.8525 17.5741 36.5376 17.2195C36.2191 16.9084 35.8395 16.6666 35.4228 16.5093C35.006 16.3521 34.5611 16.283 34.1162 16.3062C33.6272 16.3003 33.143 16.4024 32.6982 16.6053C32.2534 16.8082 31.859 17.1068 31.5432 17.4798C30.8483 18.2653 30.4992 19.4121 30.496 20.9202V31.8471H26.7052C25.9927 31.8471 25.3093 31.5644 24.8054 31.0612C24.3016 30.558 24.0185 29.8755 24.0185 29.1639V19.8317C24.0493 19.3592 23.9864 18.8853 23.8336 18.437C23.6807 17.9888 23.4408 17.5751 23.1277 17.2195C22.825 16.9219 22.4657 16.6877 22.071 16.5309C21.6763 16.374 21.2542 16.2976 20.8295 16.3062C20.3136 16.29 19.8005 16.3886 19.3274 16.5948C17.8774 17.2479 17.1319 18.6171 17.0909 20.7025V31.8471H10.6797V11.4697Z" fill="#022F5E"/>
<path d="M53.8816 22.529V31.8469H47.4277V0.5H51.2185C51.9311 0.5 52.6145 0.782697 53.1183 1.2859C53.6222 1.7891 53.9052 2.47159 53.9052 3.18323V19.524L59.7904 11.479H67.2014L59.7051 20.6124L68.8172 31.8469H61.2925L53.8816 22.529Z" fill="#022F5E"/>
<path d="M89.9316 11.4696H93.9878C94.6233 11.4709 95.2324 11.7235 95.6818 12.1723C96.1312 12.6211 96.3842 13.2295 96.3855 13.8642C97.1064 13.0734 97.9437 12.3969 98.8684 11.8577C100.057 11.213 101.398 10.9038 102.749 10.9633C103.79 10.9479 104.824 11.1244 105.801 11.4838C106.663 11.8093 107.45 12.3069 108.113 12.9461C108.758 13.5759 109.263 14.3336 109.596 15.1703C109.95 16.0749 110.127 17.0387 110.118 18.0097V31.847H106.35C105.638 31.847 104.955 31.5643 104.451 31.0611C103.947 30.5579 103.664 29.8754 103.664 29.1638V19.8316C103.695 19.3572 103.63 18.8813 103.473 18.4324C103.316 17.9836 103.07 17.571 102.749 17.2194C102.419 16.9068 102.029 16.6646 101.602 16.5075C101.175 16.3505 100.721 16.282 100.266 16.3061C99.7611 16.2944 99.2591 16.3891 98.7929 16.584C98.3268 16.7789 97.9069 17.0695 97.5606 17.4371C96.8372 18.1911 96.4455 19.2795 96.3855 20.7024V31.847H89.9316V11.4696Z" fill="#022F5E"/>
<path d="M6.47246 1.76374C6.12177 1.4114 5.70346 1.13339 5.24262 0.946364C4.78177 0.759337 4.28786 0.667142 3.79048 0.675303C3.29386 0.66751 2.80077 0.759892 2.34074 0.946916C1.88072 1.13394 1.46321 1.41176 1.11324 1.76374C0.747133 2.11808 0.459021 2.54475 0.26729 3.01653C0.0755588 3.48831 -0.0155792 3.99483 -0.000307067 4.50376C-0.012603 5.00668 0.0800517 5.50664 0.271762 5.97186C0.463473 6.43707 0.750042 6.85733 1.11324 7.20592C1.46321 7.55789 1.88072 7.83571 2.34074 8.02274C2.80077 8.20976 3.29386 8.30214 3.79048 8.29435C4.28786 8.30251 4.78177 8.21032 5.24262 8.02329C5.70346 7.83626 6.12177 7.55825 6.47246 7.20592C6.8348 6.85692 7.12049 6.43647 7.31138 5.97128C7.50226 5.50609 7.59417 5.00633 7.58127 4.50376C7.59715 3.99517 7.50676 3.48887 7.31585 3.01711C7.12494 2.54535 6.83771 2.11849 6.47246 1.76374ZM4.95141 5.65844C4.79972 5.81125 4.61872 5.93193 4.41924 6.01324C4.21977 6.09455 4.00591 6.13484 3.79048 6.13168C3.57581 6.13447 3.36277 6.094 3.16411 6.01269C2.96546 5.93138 2.78526 5.8109 2.63429 5.65844C2.47934 5.50741 2.35728 5.32606 2.27575 5.12574C2.19421 4.92543 2.15496 4.71046 2.16044 4.49429C2.15602 4.27796 2.19495 4.06293 2.27494 3.86184C2.35494 3.66076 2.47438 3.47767 2.62625 3.32336C2.77812 3.16904 2.95935 3.0466 3.15928 2.96325C3.35922 2.87989 3.57382 2.8373 3.79048 2.83798C4.00793 2.83603 4.22356 2.87769 4.4246 2.96047C4.62564 3.04326 4.808 3.1655 4.96088 3.31995C5.11376 3.4744 5.23405 3.65791 5.31463 3.85963C5.39521 4.06135 5.43444 4.27716 5.43 4.49429C5.43487 4.7108 5.39487 4.92598 5.31251 5.12631C5.23015 5.32665 5.10721 5.50782 4.95141 5.65844Z" fill="#022F5E"/>
<path d="M77.2038 32.5003C75.6722 32.5238 74.1518 32.2356 72.7354 31.6532C71.461 31.1237 70.3045 30.3468 69.3332 29.3675C68.3818 28.3837 67.6473 27.2117 67.1772 25.9271C66.6758 24.5635 66.4254 23.1206 66.438 21.668C66.4259 20.2278 66.6763 18.7974 67.1772 17.4467C67.6553 16.166 68.3888 14.9956 69.3332 14.0063C70.2974 13.0078 71.4549 12.2157 72.7354 11.678C75.6058 10.5422 78.8018 10.5422 81.6722 11.678C82.9526 12.2157 84.1102 13.0078 85.0744 14.0063C86.0188 14.9956 86.7523 16.166 87.2304 17.4467C87.7312 18.7974 87.9817 20.2278 87.9696 21.668C87.9822 23.1206 87.7318 24.5635 87.2304 25.9271C86.7602 27.2117 86.0258 28.3837 85.0744 29.3675C84.1052 30.3553 82.9486 31.1404 81.6722 31.6769C80.254 32.2511 78.7338 32.5313 77.2038 32.5003ZM77.2038 27.0155C77.8908 27.0297 78.5714 26.8805 79.1892 26.5801C79.7374 26.2968 80.2213 25.9037 80.6108 25.4255C81.0215 24.9263 81.3247 24.348 81.5016 23.7265C81.8808 22.3739 81.8808 20.9432 81.5016 19.5905C81.3295 18.9709 81.0329 18.3929 80.6297 17.8916C80.2401 17.4148 79.7561 17.0233 79.2082 16.7416C78.5857 16.4548 77.9083 16.3062 77.2227 16.3062C76.5372 16.3062 75.8598 16.4548 75.2373 16.7416C74.6894 17.0233 74.2054 17.4148 73.8158 17.8916C73.4106 18.3951 73.1065 18.9719 72.9202 19.5905C72.5159 20.9396 72.5159 22.3774 72.9202 23.7265C73.1055 24.3455 73.4097 24.9225 73.8158 25.4255C74.2052 25.9037 74.6891 26.2968 75.2373 26.5801C75.8505 26.8732 76.5242 27.0175 77.2038 27.0013V27.0155Z" fill="#022F5E"/>
</g>
<defs>
<clipPath id="clip0">
<rect width="110.118" height="32" fill="white" transform="translate(0 0.5)"/>
</clipPath>
</defs>
</svg>
